<svg id="Capa_1" enable-background="new 0 0 512 512" height="512" viewBox="0 0 512 512" width="512" xmlns="http://www.w3.org/2000/svg"><g><g><g><g><path d="m5.523 361.517 64.287-111.348 71.39 41.217-73.051 126.529-61.263-35.371z" fill="#7ec66a"/></g></g></g><g><g><g><path d="m189.115 423.346c0-22.764-18.454-41.217-41.217-41.217h-106.679v-.003c-14.726 0-28.333-7.856-35.695-20.609-7.364 12.754-7.364 28.468 0 41.223l23.795 41.215c7.363 12.753 20.97 20.609 35.695 20.609h82.884c22.764-.001 41.217-18.454 41.217-41.218z" fill="#b1ef97"/></g></g></g><g><g><g><path d="m40.837 233.363 89.82-39.135c12.709-5.537 27.151 2.8 28.71 16.576l11.018 97.354c1.902 16.807-16.134 28.622-30.782 20.165l-100.839-58.219c-14.648-8.457-13.433-29.985 2.073-36.741z" fill="#b1ef97"/></g></g></g><g><g><g><path d="m130.657 194.227-89.82 39.135c-15.506 6.756-16.72 28.284-2.072 36.741l100.838 58.219c-51.915-29.972-53.492-114.685-8.946-134.095z" fill="#92dd7a"/></g></g></g><g><g><g><path d="m315.556 30.616 64.287 111.348-71.39 41.217-73.052-126.528 61.264-35.371z" fill="#7ec66a"/></g></g></g><g><g><g><path d="m170.215 158.697c19.714 11.382 44.922 4.627 56.304-15.087l53.34-92.387.002.001c7.363-12.753 20.97-20.609 35.695-20.609-7.364-12.754-20.972-20.611-35.7-20.611h-47.591c-14.726 0-28.332 7.856-35.695 20.609l-41.442 71.78c-11.382 19.714-4.627 44.922 15.087 56.304z" fill="#b1ef97"/></g></g></g><g><g><g><path d="m409.028 125.192-11.018 97.354c-1.559 13.775-16.001 22.113-28.71 16.576l-89.82-39.135c-15.506-6.756-16.72-28.284-2.072-36.741l100.838-58.219c14.647-8.457 32.684 3.359 30.782 20.165z" fill="#b1ef97"/></g></g></g><g><g><g><path d="m398.01 222.547 11.018-97.354c1.902-16.807-16.134-28.622-30.782-20.165l-100.838 58.219c51.914-29.974 126.066 11.018 120.602 59.3z" fill="#92dd7a"/></g></g></g><g><g><g><path d="m446.983 464.431h-128.574v-82.434h146.102v70.741z" fill="#7ec66a"/></g></g></g><g><g><g><path d="m408.732 274.521c-19.714 11.382-26.469 36.59-15.087 56.304l53.34 92.387-.002.002c7.363 12.753 7.363 28.465 0 41.217 14.727 0 28.336-7.857 35.7-20.611l23.795-41.215c7.363-12.753 7.363-28.465 0-41.217l-41.442-71.78c-11.382-19.714-36.59-26.468-56.304-15.087z" fill="#b1ef97"/></g></g></g><g><g><g><path d="m318.341 497.926-78.802-58.219c-11.15-8.238-11.15-24.914 0-33.151l78.802-58.219c13.604-10.051 32.855-.338 32.855 16.576v116.437c0 16.914-19.251 26.626-32.855 16.576z" fill="#b1ef97"/></g></g></g><g><g><g><path d="m239.538 439.707 78.802 58.219c13.604 10.051 32.855.338 32.855-16.576v-116.438c.001 59.946-72.575 103.668-111.657 74.795z" fill="#92dd7a"/></g></g></g></g></svg>